<svg xmlns="http://www.w3.org/2000/svg" width="680" height="564" viewBox="0 0 680 564" role="img" font-family="system-ui,-apple-system,'PingFang SC',sans-serif">
<title>元器件 表关系</title><desc>16 张表，箭头由引用方指向被引用方。</desc>
<defs><marker id="a" viewBox="0 0 10 10" refX="9" refY="5" markerWidth="6" markerHeight="6" orient="auto-start-reverse">
<path d="M2 1L8 5L2 9" fill="none" stroke="#8A94A2" stroke-width="1.4" stroke-linecap="round"/></marker>
<style>.n{font-weight:500;fill:#161A21}.s{font-size:11px;fill:#5A6472}
.l{font-size:10.5px;fill:#5A6472;paint-order:stroke;stroke:#F7F9FB;stroke-width:3.5;stroke-linejoin:round}.b{font-size:11px;fill:#5A6472;letter-spacing:.1em}
.ar{stroke:#8A94A2;stroke-width:1.3;fill:none}</style></defs><path class="ar" d="M532 146 L532 92 L100 92 L100 77" marker-end="url(#a)"/>
<path class="ar" d="M148 262 L148 92 L100 92 L100 77" marker-end="url(#a)"/>
<path class="ar" d="M148 378 L148 324 L148 324 L148 309" marker-end="url(#a)"/>
<path class="ar" d="M532 262 L532 104 L580 104 L580 77" marker-end="url(#a)"/>
<path class="ar" d="M340 262 L340 116 L580 116 L580 77" marker-end="url(#a)"/>
<path class="ar" d="M532 494 L532 324 L340 324 L340 309" marker-end="url(#a)"/>
<path class="ar" d="M340 494 L340 92 L580 92 L580 77" marker-end="url(#a)"/>
<path class="ar" d="M340 494 L340 336 L148 336 L148 309" marker-end="url(#a)"/>
<path class="ar" d="M340 494 L340 348 L340 348 L340 309" marker-end="url(#a)"/>
<path class="ar" d="M340 378 L340 336 L148 336 L148 309" marker-end="url(#a)"/>
<path class="ar" d="M148 494 L148 104 L260 104 L260 77" marker-end="url(#a)"/>
<path class="ar" d="M148 494 L148 324 L148 324 L148 309" marker-end="url(#a)"/>
<path class="ar" d="M148 146 L148 104 L260 104 L260 77" marker-end="url(#a)"/>
<path class="ar" d="M148 146 L148 116 L580 116 L580 77" marker-end="url(#a)"/>
<path class="ar" d="M532 378 L532 208 L148 208 L148 193" marker-end="url(#a)"/>
<path class="ar" d="M532 378 L532 92 L260 92 L260 77" marker-end="url(#a)"/>
<path class="ar" d="M532 378 L532 104 L580 104 L580 77" marker-end="url(#a)"/>
<path class="ar" d="M340 146 L340 92 L580 92 L580 77" marker-end="url(#a)"/>
<rect x="31" y="30" width="138" height="44" rx="6" fill="#EAF1F6" stroke="#8FB3C9"/>
<text class="n" x="100" y="56" text-anchor="middle" font-size="13">elc_manufacturer</text>

<rect x="191" y="30" width="138" height="44" rx="6" fill="#EAF1F6" stroke="#8FB3C9"/>
<text class="n" x="260" y="56" text-anchor="middle" font-size="13">elc_rfq</text>

<rect x="351" y="30" width="138" height="44" rx="6" fill="#EAF1F6" stroke="#8FB3C9"/>
<text class="n" x="420" y="56" text-anchor="middle" font-size="13">elc_search_daily</text>

<rect x="511" y="30" width="138" height="44" rx="6" fill="#EAF1F6" stroke="#8FB3C9"/>
<text class="n" x="580" y="56" text-anchor="middle" font-size="13">elc_supplier</text>

<rect x="63" y="146" width="170" height="44" rx="6" fill="#EAF1F6" stroke="#8FB3C9"/>
<text class="n" x="148" y="172" text-anchor="middle" font-size="13">elc_dispatch</text>

<rect x="255" y="146" width="170" height="44" rx="6" fill="#EAF1F6" stroke="#8FB3C9"/>
<text class="n" x="340" y="172" text-anchor="middle" font-size="13">elc_header_alias</text>

<rect x="447" y="146" width="170" height="44" rx="6" fill="#EAF1F6" stroke="#8FB3C9"/>
<text class="n" x="532" y="172" text-anchor="middle" font-size="13">elc_mfr_alias</text>

<rect x="63" y="262" width="170" height="44" rx="6" fill="#EAF1F6" stroke="#8FB3C9"/>
<text class="n" x="148" y="288" text-anchor="middle" font-size="13">elc_part</text>

<rect x="255" y="262" width="170" height="44" rx="6" fill="#EAF1F6" stroke="#8FB3C9"/>
<text class="n" x="340" y="288" text-anchor="middle" font-size="13">elc_stock_batch</text>

<rect x="447" y="262" width="170" height="44" rx="6" fill="#EAF1F6" stroke="#8FB3C9"/>
<text class="n" x="532" y="288" text-anchor="middle" font-size="13">elc_supplier_member</text>

<rect x="63" y="378" width="170" height="44" rx="6" fill="#EAF1F6" stroke="#8FB3C9"/>
<text class="n" x="148" y="404" text-anchor="middle" font-size="13">elc_part_key</text>

<rect x="255" y="378" width="170" height="44" rx="6" fill="#EAF1F6" stroke="#8FB3C9"/>
<text class="n" x="340" y="404" text-anchor="middle" font-size="13">elc_part_market</text>

<rect x="447" y="378" width="170" height="44" rx="6" fill="#EAF1F6" stroke="#8FB3C9"/>
<text class="n" x="532" y="404" text-anchor="middle" font-size="13">elc_quote</text>

<rect x="63" y="494" width="170" height="44" rx="6" fill="#EAF1F6" stroke="#8FB3C9"/>
<text class="n" x="148" y="520" text-anchor="middle" font-size="13">elc_rfq_line</text>

<rect x="255" y="494" width="170" height="44" rx="6" fill="#EAF1F6" stroke="#8FB3C9"/>
<text class="n" x="340" y="520" text-anchor="middle" font-size="13">elc_stock</text>

<rect x="447" y="494" width="170" height="44" rx="6" fill="#EAF1F6" stroke="#8FB3C9"/>
<text class="n" x="532" y="520" text-anchor="middle" font-size="13">elc_stock_batch_row</text>

<text class="l" x="316" y="88" text-anchor="middle">mfr_code</text>
<text class="l" x="124" y="88" text-anchor="middle">mfr_code</text>
<text class="l" x="148" y="320" text-anchor="middle">part_no</text>
<text class="l" x="556" y="100" text-anchor="middle">supplier_no</text>
<text class="l" x="460" y="112" text-anchor="middle">supplier_no</text>
<text class="l" x="436" y="320" text-anchor="middle">batch_no</text>
<text class="l" x="460" y="88" text-anchor="middle">supplier_no</text>
<text class="l" x="244" y="332" text-anchor="middle">part_no</text>
<text class="l" x="340" y="344" text-anchor="middle">batch_no</text>
<text class="l" x="244" y="332" text-anchor="middle">part_no</text>
<text class="l" x="204" y="100" text-anchor="middle">rfq_no</text>
<text class="l" x="148" y="320" text-anchor="middle">part_no</text>
<text class="l" x="204" y="100" text-anchor="middle">rfq_no</text>
<text class="l" x="364" y="112" text-anchor="middle">supplier_no</text>
<text class="l" x="340" y="204" text-anchor="middle">dispatch_no</text>
<text class="l" x="396" y="88" text-anchor="middle">rfq_no</text>
<text class="l" x="556" y="100" text-anchor="middle">supplier_no</text>
<text class="l" x="460" y="88" text-anchor="middle">supplier_no</text></svg>