<svg xmlns="http://www.w3.org/2000/svg" width="680" height="680" viewBox="0 0 680 680" role="img" font-family="system-ui,-apple-system,'PingFang SC',sans-serif">
<title>商家主体与门店 表关系</title><desc>17 张表，箭头由引用方指向被引用方。</desc>
<defs><marker id="a" viewBox="0 0 10 10" refX="9" refY="5" markerWidth="6" markerHeight="6" orient="auto-start-reverse">
<path d="M2 1L8 5L2 9" fill="none" stroke="#8A94A2" stroke-width="1.4" stroke-linecap="round"/></marker>
<style>.n{font-weight:500;fill:#161A21}.s{font-size:11px;fill:#5A6472}
.l{font-size:10.5px;fill:#5A6472;paint-order:stroke;stroke:#F7F9FB;stroke-width:3.5;stroke-linejoin:round}.b{font-size:11px;fill:#5A6472;letter-spacing:.1em}
.ar{stroke:#8A94A2;stroke-width:1.3;fill:none}</style></defs><path class="ar" d="M100 146 L100 92 L244 92 L244 77" marker-end="url(#a)"/>
<path class="ar" d="M260 146 L260 104 L244 104 L244 77" marker-end="url(#a)"/>
<path class="ar" d="M100 494 L100 92 L244 92 L244 77" marker-end="url(#a)"/>
<path class="ar" d="M100 538 L100 592 L340 592 L340 607" marker-end="url(#a)"/>
<path class="ar" d="M420 146 L420 116 L244 116 L244 77" marker-end="url(#a)"/>
<path class="ar" d="M260 494 L260 208 L420 208 L420 193" marker-end="url(#a)"/>
<path class="ar" d="M260 538 L260 580 L340 580 L340 607" marker-end="url(#a)"/>
<path class="ar" d="M340 610 L340 92 L244 92 L244 77" marker-end="url(#a)"/>
<path class="ar" d="M340 610 L340 556 L100 556 L100 541" marker-end="url(#a)"/>
<path class="ar" d="M420 494 L420 104 L244 104 L244 77" marker-end="url(#a)"/>
<path class="ar" d="M420 538 L420 568 L340 568 L340 607" marker-end="url(#a)"/>
<path class="ar" d="M580 146 L580 92 L244 92 L244 77" marker-end="url(#a)"/>
<path class="ar" d="M100 262 L100 92 L244 92 L244 77" marker-end="url(#a)"/>
<path class="ar" d="M260 262 L260 104 L244 104 L244 77" marker-end="url(#a)"/>
<path class="ar" d="M420 262 L420 116 L244 116 L244 77" marker-end="url(#a)"/>
<path class="ar" d="M580 262 L580 92 L244 92 L244 77" marker-end="url(#a)"/>
<path class="ar" d="M580 494 L580 116 L244 116 L244 77" marker-end="url(#a)"/>
<path class="ar" d="M580 538 L580 592 L340 592 L340 607" marker-end="url(#a)"/>
<path class="ar" d="M244 378 L244 92 L244 92 L244 77" marker-end="url(#a)"/>
<path class="ar" d="M436 378 L436 104 L244 104 L244 77" marker-end="url(#a)"/>
<rect x="159" y="30" width="170" height="44" rx="6" fill="#EAF1F6" stroke="#8FB3C9"/>
<text class="n" x="244" y="50" text-anchor="middle" font-size="13">mch_entity</text>
<text class="s" x="244" y="65" text-anchor="middle">经营主体：一张营业执照的经营…</text>
<rect x="351" y="30" width="170" height="44" rx="6" fill="#EAF1F6" stroke="#8FB3C9"/>
<text class="n" x="436" y="50" text-anchor="middle" font-size="13">mch_admission_policy</text>
<text class="s" x="436" y="65" text-anchor="middle">准入策略：按 legal_form 档…</text>
<rect x="31" y="146" width="138" height="44" rx="6" fill="#EAF1F6" stroke="#8FB3C9"/>
<text class="n" x="100" y="166" text-anchor="middle" font-size="13">mch_entity_apply</text>
<text class="s" x="100" y="181" text-anchor="middle">入驻申请：审核通过时创…</text>
<rect x="191" y="146" width="138" height="44" rx="6" fill="#EAF1F6" stroke="#8FB3C9"/>
<text class="n" x="260" y="166" text-anchor="middle" font-size="11">mch_entity_community</text>
<text class="s" x="260" y="181" text-anchor="middle">商家覆盖的社区（scope=…</text>
<rect x="351" y="146" width="138" height="44" rx="6" fill="#EAF1F6" stroke="#8FB3C9"/>
<text class="n" x="420" y="166" text-anchor="middle" font-size="13">mch_account</text>
<text class="s" x="420" y="181" text-anchor="middle">商家账号：B 端登录账号…</text>
<rect x="511" y="146" width="138" height="44" rx="6" fill="#EAF1F6" stroke="#8FB3C9"/>
<text class="n" x="580" y="166" text-anchor="middle" font-size="13">mch_store_audit</text>
<text class="s" x="580" y="181" text-anchor="middle">店招与公告的人审队列：…</text>
<rect x="31" y="262" width="138" height="44" rx="6" fill="#EAF1F6" stroke="#8FB3C9"/>
<text class="n" x="100" y="282" text-anchor="middle" font-size="13">mch_qualification</text>
<text class="s" x="100" y="297" text-anchor="middle">商家资质。结构化存证件…</text>
<rect x="191" y="262" width="138" height="44" rx="6" fill="#EAF1F6" stroke="#8FB3C9"/>
<text class="n" x="260" y="282" text-anchor="middle" font-size="13">mch_deposit</text>
<text class="s" x="260" y="297" text-anchor="middle">保证金账户，一商户一行</text>
<rect x="351" y="262" width="138" height="44" rx="6" fill="#EAF1F6" stroke="#8FB3C9"/>
<text class="n" x="420" y="282" text-anchor="middle" font-size="13">mch_deposit_txn</text>
<text class="s" x="420" y="297" text-anchor="middle">保证金流水</text>
<rect x="511" y="262" width="138" height="44" rx="6" fill="#EAF1F6" stroke="#8FB3C9"/>
<text class="n" x="580" y="282" text-anchor="middle" font-size="13">mch_service_area</text>
<text class="s" x="580" y="297" text-anchor="middle">商家的地理覆盖项：一行…</text>
<rect x="159" y="378" width="170" height="44" rx="6" fill="#EAF1F6" stroke="#8FB3C9"/>
<text class="n" x="244" y="398" text-anchor="middle" font-size="13">mch_role</text>
<text class="s" x="244" y="413" text-anchor="middle">商家角色：6 个平台预置（只读）…</text>
<rect x="351" y="378" width="170" height="44" rx="6" fill="#EAF1F6" stroke="#8FB3C9"/>
<text class="n" x="436" y="398" text-anchor="middle" font-size="13">mch_entity_plan</text>
<text class="s" x="436" y="413" text-anchor="middle">主体的增值包订阅</text>
<rect x="31" y="494" width="138" height="44" rx="6" fill="#EAF1F6" stroke="#8FB3C9"/>
<text class="n" x="100" y="514" text-anchor="middle" font-size="11">mch_payment_merchant</text>
<text class="s" x="100" y="529" text-anchor="middle">收款商户号：进件产物 s…</text>
<rect x="191" y="494" width="138" height="44" rx="6" fill="#EAF1F6" stroke="#8FB3C9"/>
<text class="n" x="260" y="514" text-anchor="middle" font-size="13">mch_store_role</text>
<text class="s" x="260" y="529" text-anchor="middle">子账号在各门店的角色…</text>
<rect x="351" y="494" width="138" height="44" rx="6" fill="#EAF1F6" stroke="#8FB3C9"/>
<text class="n" x="420" y="514" text-anchor="middle" font-size="13">mch_violation</text>
<text class="s" x="420" y="529" text-anchor="middle">商家违规与处置记录：结…</text>
<rect x="511" y="494" width="138" height="44" rx="6" fill="#EAF1F6" stroke="#8FB3C9"/>
<text class="n" x="580" y="514" text-anchor="middle" font-size="13">mch_staff_log</text>
<text class="s" x="580" y="529" text-anchor="middle">员工与授权的操作日志：…</text>
<rect x="255" y="610" width="170" height="44" rx="6" fill="#EAF1F6" stroke="#8FB3C9"/>
<text class="n" x="340" y="630" text-anchor="middle" font-size="13">mch_store</text>
<text class="s" x="340" y="645" text-anchor="middle">门店：顾客感知的边界（地址/营…</text>
<text class="l" x="172" y="88" text-anchor="middle">entity_no</text>
<text class="l" x="252" y="100" text-anchor="middle">entity_no</text>
<text class="l" x="172" y="88" text-anchor="middle">entity_no</text>
<text class="l" x="220" y="588" text-anchor="middle">store_no</text>
<text class="l" x="332" y="112" text-anchor="middle">entity_no</text>
<text class="l" x="340" y="204" text-anchor="middle">mch_account_no</text>
<text class="l" x="300" y="576" text-anchor="middle">store_no</text>
<text class="l" x="292" y="88" text-anchor="middle">entity_no</text>
<text class="l" x="220" y="552" text-anchor="middle">pay_merchant_no</text>
<text class="l" x="332" y="100" text-anchor="middle">entity_no</text>
<text class="l" x="380" y="564" text-anchor="middle">store_no</text>
<text class="l" x="412" y="88" text-anchor="middle">entity_no</text>
<text class="l" x="172" y="88" text-anchor="middle">entity_no</text>
<text class="l" x="252" y="100" text-anchor="middle">merchant_no</text>
<text class="l" x="332" y="112" text-anchor="middle">merchant_no</text>
<text class="l" x="412" y="88" text-anchor="middle">entity_no</text>
<text class="l" x="412" y="112" text-anchor="middle">entity_no</text>
<text class="l" x="460" y="588" text-anchor="middle">store_no</text>
<text class="l" x="244" y="88" text-anchor="middle">entity_no</text>
<text class="l" x="340" y="100" text-anchor="middle">entity_no</text></svg>