<svg xmlns="http://www.w3.org/2000/svg" width="680" height="332" viewBox="0 0 680 332" role="img" font-family="system-ui,-apple-system,'PingFang SC',sans-serif">
<title>结算 表关系</title><desc>9 张表，箭头由引用方指向被引用方。</desc>
<defs><marker id="a" viewBox="0 0 10 10" refX="9" refY="5" markerWidth="6" markerHeight="6" orient="auto-start-reverse">
<path d="M2 1L8 5L2 9" fill="none" stroke="#8A94A2" stroke-width="1.4" stroke-linecap="round"/></marker>
<style>.n{font-weight:500;fill:#161A21}.s{font-size:11px;fill:#5A6472}
.l{font-size:10.5px;fill:#5A6472;paint-order:stroke;stroke:#F7F9FB;stroke-width:3.5;stroke-linejoin:round}.b{font-size:11px;fill:#5A6472;letter-spacing:.1em}
.ar{stroke:#8A94A2;stroke-width:1.3;fill:none}</style></defs><path class="ar" d="M244 262 L244 92 L100 92 L100 77" marker-end="url(#a)"/>
<path class="ar" d="M436 262 L436 104 L260 104 L260 77" marker-end="url(#a)"/>
<rect x="31" y="30" width="138" height="44" rx="6" fill="#EAF1F6" stroke="#8FB3C9"/>
<text class="n" x="100" y="50" text-anchor="middle" font-size="13">stl_bill</text>
<text class="s" x="100" y="65" text-anchor="middle">结算单（按子单）</text>
<rect x="191" y="30" width="138" height="44" rx="6" fill="#EAF1F6" stroke="#8FB3C9"/>
<text class="n" x="260" y="50" text-anchor="middle" font-size="13">stl_payment</text>
<text class="s" x="260" y="65" text-anchor="middle">资金流水（append 为主…</text>
<rect x="351" y="30" width="138" height="44" rx="6" fill="#EAF1F6" stroke="#8FB3C9"/>
<text class="n" x="420" y="50" text-anchor="middle" font-size="13">stl_points_pool</text>
<text class="s" x="420" y="65" text-anchor="middle">平台积分营销资金账户…</text>
<rect x="511" y="30" width="138" height="44" rx="6" fill="#EAF1F6" stroke="#8FB3C9"/>
<text class="n" x="580" y="50" text-anchor="middle" font-size="11">stl_purchase_invoice</text>
<text class="s" x="580" y="65" text-anchor="middle">采购进项票登记（自营）。…</text>
<rect x="63" y="146" width="170" height="44" rx="6" fill="#EAF1F6" stroke="#8FB3C9"/>
<text class="n" x="148" y="166" text-anchor="middle" font-size="13">stl_fee_rule</text>
<text class="s" x="148" y="181" text-anchor="middle">费率规则：经营模式 × 流量来…</text>
<rect x="255" y="146" width="170" height="44" rx="6" fill="#EAF1F6" stroke="#8FB3C9"/>
<text class="n" x="340" y="166" text-anchor="middle" font-size="13">stl_withdraw</text>
<text class="s" x="340" y="181" text-anchor="middle">商家提现单（P-12.2.1，只记账…</text>
<rect x="447" y="146" width="170" height="44" rx="6" fill="#EAF1F6" stroke="#8FB3C9"/>
<text class="n" x="532" y="166" text-anchor="middle" font-size="13">stl_settle_invoice</text>
<text class="s" x="532" y="181" text-anchor="middle">商家结算发票申请（P-12.2.4）</text>
<rect x="159" y="262" width="170" height="44" rx="6" fill="#EAF1F6" stroke="#8FB3C9"/>
<text class="n" x="244" y="282" text-anchor="middle" font-size="13">stl_split_log</text>
<text class="s" x="244" y="297" text-anchor="middle">分账指令与回执（append-only）</text>
<rect x="351" y="262" width="170" height="44" rx="6" fill="#EAF1F6" stroke="#8FB3C9"/>
<text class="n" x="436" y="282" text-anchor="middle" font-size="13">stl_recon_diff</text>
<text class="s" x="436" y="297" text-anchor="middle">对账差异：平台侧自查与渠道账…</text>
<text class="l" x="172" y="88" text-anchor="middle">settle_no</text>
<text class="l" x="348" y="100" text-anchor="middle">payment_no</text></svg>