<svg xmlns="http://www.w3.org/2000/svg" width="1240" height="840" viewBox="0 0 1240 840" role="img" font-family="system-ui,-apple-system,'PingFang SC',sans-serif">
<title>物流域类图：五个能力各自一个 SPI 端口，两种扩展模型（链式多家 / 条件单活）</title>
<desc>物流域按能力切成五列：运费计算、寄件下单、轨迹查询、轨迹展示、发货上报。每列顶上是 shop-base/spi 里的端口接口，调用方只认它。轨迹查询与轨迹展示这两列中间多一层路由器，把多家实现按配置链串起来、逐级回退，是「支持多家」已经成立的两处；寄件下单与发货上报两列没有路由器，靠 @ConditionalOnProperty 二选一，同一时刻只有一个 bean 活着，要支持多家必须先补路由器。底部是落库的六张表与四个定时作业。</desc>
<defs>
<marker id="ar" viewBox="0 0 10 10" refX="9" refY="5" markerWidth="6" markerHeight="6" orient="auto-start-reverse">
<path d="M2 1L8 5L2 9" fill="none" stroke="#8A94A2" stroke-width="1.4" stroke-linecap="round"/></marker>
<marker id="arw" viewBox="0 0 10 10" refX="9" refY="5" markerWidth="6" markerHeight="6" orient="auto-start-reverse">
<path d="M2 1L8 5L2 9" fill="none" stroke="#C9752F" stroke-width="1.5" stroke-linecap="round"/></marker>
<style>
.n{font-size:12px;font-weight:650;fill:#161A21}
.sm{font-size:10px;fill:#5A6472}
.mt{font-size:9.5px;fill:#6B7484;font-family:ui-monospace,SFMono-Regular,Menlo,monospace}
.b{font-size:10.5px;fill:#8A94A2;letter-spacing:.1em;font-weight:600}
.l{font-size:9px;fill:#5A6472;paint-order:stroke;stroke:#fff;stroke-width:3.5;stroke-linejoin:round}
.port{fill:#F2F8F4;stroke:#7FB894;stroke-width:1.7}
.router{fill:#FDF6EC;stroke:#D9994A;stroke-width:1.7}
.impl{fill:#fff;stroke:#D8DEE6;stroke-width:1.2}
.implon{fill:#FBFDFB;stroke:#9CC9AC;stroke-width:1.4}
.caller{fill:#F7F8FA;stroke:#C4CBD5;stroke-width:1.2}
.data{fill:#EEF4FC;stroke:#8FADD4;stroke-width:1.3}
.job{fill:#FBF4F6;stroke:#C98FA6;stroke-width:1.3}
.ar{stroke:#8A94A2;stroke-width:1.2;fill:none}
.arw{stroke:#C9752F;stroke-width:1.5;fill:none}
.zone{fill:none;stroke:#DDE2E9;stroke-width:1.1;stroke-dasharray:5 4}
.zt{font-size:9.5px;fill:#A6AEBB;letter-spacing:.08em}
.badge{font-size:9px;font-weight:700}
.bgood{fill:#4E9A6B}.bwarn{fill:#C9752F}
.iface{font-size:9px;fill:#7FB894;font-weight:700;letter-spacing:.06em}
</style></defs>

<text class="b" x="24" y="24">物流域 · 五个能力 · 两种扩展模型</text>
<text class="sm" x="24" y="40">绿 = SPI 端口（调用方只认它）　橙 = 路由器（多家共存的关键）　白 = 具体实现　蓝 = 落库　粉 = 定时作业</text>

<!-- 调用方 -->
<rect class="zone" x="20" y="54" width="1200" height="52" rx="6"/>
<text class="zt" x="30" y="70">调用方 · shop-core / shop-app</text>
<rect class="caller" x="36" y="74" width="168" height="24" rx="4"/><text class="mt" x="46" y="90">OrderServiceImpl 算运费</text>
<rect class="caller" x="214" y="74" width="190" height="24" rx="4"/><text class="mt" x="224" y="90">ExpressPickupServiceImpl 寄件</text>
<rect class="caller" x="414" y="74" width="196" height="24" rx="4"/><text class="mt" x="424" y="90">LogisticsServiceImpl 刷轨迹</text>
<rect class="caller" x="620" y="74" width="196" height="24" rx="4"/><text class="mt" x="630" y="90">WxWaybillBindService 备展示</text>
<rect class="caller" x="826" y="74" width="190" height="24" rx="4"/><text class="mt" x="836" y="90">WxShippingUploadJob 上报</text>
<rect class="caller" x="1026" y="74" width="178" height="24" rx="4"/><text class="mt" x="1036" y="90">订单详情 读缓存</text>

<!-- ============ A 运费计算 ============ -->
<text class="b" x="30" y="132">A · 运费计算</text>
<rect class="port" x="24" y="140" width="206" height="78" rx="7"/>
<text class="iface" x="36" y="156">«interface»  spi.fulfillment</text>
<text class="n" x="36" y="172">FreightPort</text>
<text class="mt" x="36" y="188">quote(tpl,重,件,额,地址)</text>
<text class="mt" x="36" y="202">quoteMerged(lines,地址)</text>
<text class="mt" x="36" y="214">static merge(parts) 淘宝式</text>
<text class="badge bgood" x="166" y="156">单实现</text>

<rect class="implon" x="24" y="330" width="206" height="46" rx="6"/>
<text class="n" x="36" y="348">FreightPortImpl</text>
<text class="sm" x="36" y="364">模板取自 ful_freight_template</text>
<path class="ar" d="M127 218 L127 330" marker-end="url(#ar)"/>

<!-- ============ B 寄件下单 ============ -->
<text class="b" x="250" y="132">B · 寄件下单（商家叫快递）</text>
<rect class="port" x="244" y="140" width="206" height="78" rx="7"/>
<text class="iface" x="256" y="156">«interface»  spi.fulfillment</text>
<text class="n" x="256" y="172">ExpressPickupPort</text>
<text class="mt" x="256" y="188">quote / create / cancel</text>
<text class="mt" x="256" y="202">parseCallback(签名校验)</text>
<text class="mt" x="256" y="214">carriers() · enabled()</text>
<text class="badge bwarn" x="372" y="156">条件单活</text>

<rect class="impl" x="244" y="330" width="100" height="46" rx="6"/>
<text class="n" x="254" y="348">Kuaidi100</text>
<text class="sm" x="254" y="364">stub=false 才活</text>
<rect class="implon" x="350" y="330" width="100" height="46" rx="6"/>
<text class="n" x="360" y="348">Stub</text>
<text class="sm" x="360" y="364">默认活 · 空实现</text>
<path class="ar" d="M347 218 L294 330" marker-end="url(#ar)"/>
<path class="ar" d="M347 218 L400 330" marker-end="url(#ar)"/>
<text class="l" x="300" y="290">@ConditionalOnProperty 二选一</text>

<!-- ============ C 轨迹查询 ============ -->
<text class="b" x="470" y="132">C · 轨迹查询（数据源轴）</text>
<rect class="port" x="464" y="140" width="246" height="78" rx="7"/>
<text class="iface" x="476" y="156">«interface»  spi.logistics</text>
<text class="n" x="476" y="172">LogisticsTracePort</text>
<text class="mt" x="476" y="188">trace(门店,承运商,单号,手机)</text>
<text class="mt" x="476" y="206">→ Optional&lt;TraceResult&gt;</text>
<text class="badge bgood" x="630" y="156">链式多家</text>

<rect class="router" x="464" y="236" width="246" height="68" rx="7"/>
<text class="n" x="476" y="254">LogisticsTraceRouter</text>
<text class="sm" x="476" y="270">按链取第一个能用的，逐级回退</text>
<text class="mt" x="476" y="286">by-store › by-carrier › by-default</text>
<text class="sm" x="476" y="299">整条链走完才空 —— 不抛错</text>
<path class="arw" d="M587 218 L587 236" marker-end="url(#arw)"/>

<rect class="port" x="464" y="330" width="246" height="42" rx="6" style="fill:#F7FBF8"/>
<text class="iface" x="476" y="346">«interface» TraceProvider</text>
<text class="mt" x="476" y="362">name() covers() available() trace()</text>
<path class="arw" d="M587 304 L587 330" marker-end="url(#arw)"/>

<rect class="impl" x="464" y="386" width="78" height="44" rx="6"/>
<text class="n" x="472" y="404">kuaidi100</text>
<text class="sm" x="472" y="420">需凭据</text>
<rect class="impl" x="548" y="386" width="78" height="44" rx="6"/>
<text class="n" x="556" y="404">yto</text>
<text class="sm" x="556" y="420">只认 YTO</text>
<rect class="implon" x="632" y="386" width="78" height="44" rx="6"/>
<text class="n" x="640" y="404">stub</text>
<text class="sm" x="640" y="420">恒可用</text>
<path class="ar" d="M503 372 L503 386"/><path class="ar" d="M587 372 L587 386"/><path class="ar" d="M671 372 L671 386"/>

<!-- ============ D 轨迹展示 ============ -->
<text class="b" x="730" y="132">D · 轨迹展示（展示轴）</text>
<rect class="port" x="724" y="140" width="246" height="78" rx="7"/>
<text class="iface" x="736" y="156">«interface»  spi.logistics</text>
<text class="n" x="736" y="172">TraceDisplayPort</text>
<text class="mt" x="736" y="188">decide(Surface, ShipmentCtx)</text>
<text class="mt" x="736" y="206">lastFailReason() 给运营排查</text>
<text class="badge bgood" x="878" y="156">链式多渠道</text>

<rect class="router" x="724" y="236" width="246" height="68" rx="7"/>
<text class="n" x="736" y="254">TraceDisplayRouter</text>
<text class="sm" x="736" y="270">按端选链：MP / APP / OPS / H5</text>
<text class="mt" x="736" y="286">display.mp = [wx-plugin, self-map]</text>
<text class="sm" x="736" y="299">supports=false 静默落下一个</text>
<path class="arw" d="M847 218 L847 236" marker-end="url(#arw)"/>

<rect class="port" x="724" y="330" width="246" height="42" rx="6" style="fill:#F7FBF8"/>
<text class="iface" x="736" y="346">«interface» TraceDisplay</text>
<text class="mt" x="736" y="362">name() supports(端,ctx) prepare(ctx)</text>
<path class="arw" d="M847 304 L847 330" marker-end="url(#arw)"/>

<rect class="implon" x="724" y="386" width="118" height="44" rx="6"/>
<text class="n" x="732" y="404">wx-plugin</text>
<text class="sm" x="732" y="420">换 waybill_token</text>
<rect class="implon" x="852" y="386" width="118" height="44" rx="6"/>
<text class="n" x="860" y="404">self-map</text>
<text class="sm" x="860" y="420">链尾 · 恒 supports</text>
<path class="ar" d="M783 372 L783 386"/><path class="ar" d="M911 372 L911 386"/>

<!-- ============ E 发货上报 ============ -->
<text class="b" x="990" y="132">E · 发货上报</text>
<rect class="port" x="984" y="140" width="220" height="78" rx="7"/>
<text class="iface" x="996" y="156">«interface»  spi.trade</text>
<text class="n" x="996" y="172">WxShippingPort</text>
<text class="mt" x="996" y="188">upload(Command) → Result</text>
<text class="mt" x="996" y="206">logisticsType 1快2同城3虚4自提</text>
<text class="badge bwarn" x="1126" y="156">条件单活</text>

<rect class="implon" x="984" y="330" width="106" height="46" rx="6"/>
<text class="n" x="994" y="348">WxShipping</text>
<text class="sm" x="994" y="364">stub=false 才活</text>
<rect class="impl" x="1096" y="330" width="108" height="46" rx="6"/>
<text class="n" x="1106" y="348">Stub</text>
<text class="sm" x="1106" y="364">缺配置时默认活</text>
<path class="ar" d="M1094 218 L1037 330" marker-end="url(#ar)"/>
<path class="ar" d="M1094 218 L1150 330" marker-end="url(#ar)"/>

<!-- 读缓存端口 -->
<rect class="port" x="984" y="386" width="220" height="44" rx="6"/>
<text class="iface" x="996" y="402">«interface» ShipmentTraceQueryPort</text>
<text class="mt" x="996" y="420">traceOf(子单,端) 纯读库 · 不调外部</text>

<!-- 调用方 → 端口 -->
<path class="ar" d="M120 98 L120 140" marker-end="url(#ar)"/>
<path class="ar" d="M309 98 L320 140" marker-end="url(#ar)"/>
<path class="ar" d="M512 98 L540 140" marker-end="url(#ar)"/>
<path class="ar" d="M718 98 L800 140" marker-end="url(#ar)"/>
<path class="ar" d="M921 98 L1040 140" marker-end="url(#ar)"/>
<path class="ar" d="M1115 98 L1115 386" marker-end="url(#ar)" style="stroke-dasharray:4 3"/>

<!-- 数据层 -->
<rect class="zone" x="20" y="470" width="1200" height="86" rx="6"/>
<text class="zt" x="30" y="488">落库 · shop-core/fulfillment + trade</text>
<rect class="data" x="36" y="496" width="150" height="46" rx="5"/>
<text class="n" x="46" y="514">ful_freight_tmpl</text><text class="sm" x="46" y="530">首重/续重/满免/地区规则</text>
<rect class="data" x="196" y="496" width="150" height="46" rx="5"/>
<text class="n" x="206" y="514">ord_express_pickup</text><text class="sm" x="206" y="530">寄件单 · 计费重 · 回调</text>
<rect class="data" x="356" y="496" width="176" height="46" rx="5"/>
<text class="n" x="366" y="514">ful_shipment</text><text class="sm" x="366" y="530">运单投影 · 状态 · 展示 token</text>
<rect class="data" x="542" y="496" width="160" height="46" rx="5"/>
<text class="n" x="552" y="514">ful_shipment_trace</text><text class="sm" x="552" y="530">轨迹节点 · 坐标</text>
<rect class="data" x="712" y="496" width="150" height="46" rx="5"/>
<text class="n" x="722" y="514">ful_carrier</text><text class="sm" x="722" y="530">承运商启用 · 优先级</text>
<rect class="data" x="872" y="496" width="160" height="46" rx="5"/>
<text class="n" x="882" y="514">trd_shipping_upload</text><text class="sm" x="882" y="530">上报台账 · 重试</text>
<rect class="data" x="1042" y="496" width="162" height="46" rx="5"/>
<text class="n" x="1052" y="514">ExpressCompanies</text><text class="sm" x="1052" y="530">14 个码 · 人工核验固化</text>

<!-- 作业层 -->
<rect class="zone" x="20" y="572" width="1200" height="76" rx="6"/>
<text class="zt" x="30" y="590">定时作业 · 调度表 job_definition 里逐个开关（新作业注册进来默认是关的）</text>
<rect class="job" x="36" y="598" width="248" height="40" rx="5"/>
<text class="n" x="46" y="615">logistics-trace　0 */30</text><text class="sm" x="46" y="630">扫在途 → 查轨迹 → 推进状态</text>
<rect class="job" x="296" y="598" width="248" height="40" rx="5"/>
<text class="n" x="306" y="615">wx-waybill-bind　0 5,35</text><text class="sm" x="306" y="630">预先换 waybill_token 落库</text>
<rect class="job" x="556" y="598" width="248" height="40" rx="5"/>
<text class="n" x="566" y="615">wx-shipping-upload　0 */10</text><text class="sm" x="566" y="630">排空上报队列 → 微信</text>
<rect class="job" x="816" y="598" width="248" height="40" rx="5"/>
<text class="n" x="826" y="615">order-auto-receipt　0 0 3</text><text class="sm" x="826" y="630">发货后 N 天自动确认收货</text>

<!-- 底部说明 -->
<rect x="20" y="664" width="1200" height="156" rx="7" style="fill:#FBFCFD;stroke:#E3E8EE;stroke-width:1.1"/>
<text class="b" x="36" y="686">图上看不出来的三件事</text>
<text class="sm" x="36" y="708">① <tspan font-weight="700">两种扩展模型不是风格差异，是能力差异。</tspan> C、D 两列的多家实现<tspan font-weight="700">同时活着</tspan>，由路由器按配置链挑；A、B、E 三列靠 @ConditionalOnProperty，</text>
<text class="sm" x="48" y="724">同一时刻<tspan font-weight="700">只有一个 bean</tspan>。所以「寄件要支持多家」不是加一个实现就行，得先补一个 PickupRouter —— 这是本次架构的主要缺口。</text>
<text class="sm" x="36" y="746">② <tspan font-weight="700">C 与 D 正交。</tspan>「谁去查轨迹」（快递100/圆通）与「怎么呈现给买家」（微信全屏页/自建地图）是两件独立的事：同一条快递100 查来的轨迹，</text>
<text class="sm" x="48" y="762">在小程序走微信插件、在 B 端走自建地图。把它们混成一轴，就会出现「换了数据源，B 端的地图跟着没了」。</text>
<text class="sm" x="36" y="784">③ <tspan font-weight="700">读路径不碰外部。</tspan>订单详情只走 ShipmentTraceQueryPort 纯读库（图右下虚线）。轨迹由作业预先查好、token 由作业预先换好 ——</text>
<text class="sm" x="48" y="800">买家反复下拉刷不穿快递100 的计费和微信的调用配额。代价是数据最新度取决于作业频率，这正是下面方案要改的地方。</text>
</svg>
